{
    "asset": {
        "generator": "Khronos glTF Blender I/O v3.6.27",
        "version": "2.0"
    },
    "scene": 0,
    "scenes": [
        {
            "name": "Scene",
            "nodes": [
                0,
                1,
                2,
                3,
                4,
                5,
                6,
                7,
                8,
                9,
                10,
                11,
                12,
                13,
                14
            ]
        }
    ],
    "nodes": [
        {
            "mesh": 0,
            "name": "SM_tbbqejqr_VarA",
            "rotation": [
                0.7071068286895752,
                0,
                0,
                0.7071068286895752
            ],
            "scale": [
                0.009999999776482582,
                0.009999999776482582,
                0.009999999776482582
            ]
        },
        {
            "mesh": 1,
            "name": "SM_tbbqejqr_VarA_LOD1",
            "rotation": [
                0.7071068286895752,
                0,
                0,
                0.7071068286895752
            ],
            "scale": [
                0.009999999776482582,
                0.009999999776482582,
                0.009999999776482582
            ],
            "extras": {
                "lod": {
                    "index": 1,
                    "mesh": "SM_tbbqejqr_VarA"
                }
            }
        },
        {
            "mesh": 2,
            "name": "SM_tbbqejqr_VarA_LOD2",
            "rotation": [
                0.7071068286895752,
                0,
                0,
                0.7071068286895752
            ],
            "scale": [
                0.009999999776482582,
                0.009999999776482582,
                0.009999999776482582
            ],
            "extras": {
                "lod": {
                    "index": 2,
                    "mesh": "SM_tbbqejqr_VarA"
                }
            }
        },
        {
            "mesh": 3,
            "name": "SM_tbbqejqr_VarB",
            "rotation": [
                0.7071068286895752,
                0,
                0,
                0.7071068286895752
            ],
            "scale": [
                0.009999999776482582,
                0.009999999776482582,
                0.009999999776482582
            ]
        },
        {
            "mesh": 4,
            "name": "SM_tbbqejqr_VarB_LOD1",
            "rotation": [
                0.7071068286895752,
                0,
                0,
                0.7071068286895752
            ],
            "scale": [
                0.009999999776482582,
                0.009999999776482582,
                0.009999999776482582
            ],
            "extras": {
                "lod": {
                    "index": 1,
                    "mesh": "SM_tbbqejqr_VarB"
                }
            }
        },
        {
            "mesh": 5,
            "name": "SM_tbbqejqr_VarB_LOD2",
            "rotation": [
                0.7071068286895752,
                0,
                0,
                0.7071068286895752
            ],
            "scale": [
                0.009999999776482582,
                0.009999999776482582,
                0.009999999776482582
            ],
            "extras": {
                "lod": {
                    "index": 2,
                    "mesh": "SM_tbbqejqr_VarB"
                }
            }
        },
        {
            "mesh": 6,
            "name": "SM_tbbqejqr_VarC",
            "rotation": [
                0.7071068286895752,
                0,
                0,
                0.7071068286895752
            ],
            "scale": [
                0.009999999776482582,
                0.009999999776482582,
                0.009999999776482582
            ]
        },
        {
            "mesh": 7,
            "name": "SM_tbbqejqr_VarC_LOD1",
            "rotation": [
                0.7071068286895752,
                0,
                0,
                0.7071068286895752
            ],
            "scale": [
                0.009999999776482582,
                0.009999999776482582,
                0.009999999776482582
            ],
            "extras": {
                "lod": {
                    "index": 1,
                    "mesh": "SM_tbbqejqr_VarC"
                }
            }
        },
        {
            "mesh": 8,
            "name": "SM_tbbqejqr_VarC_LOD2",
            "rotation": [
                0.7071068286895752,
                0,
                0,
                0.7071068286895752
            ],
            "scale": [
                0.009999999776482582,
                0.009999999776482582,
                0.009999999776482582
            ],
            "extras": {
                "lod": {
                    "index": 2,
                    "mesh": "SM_tbbqejqr_VarC"
                }
            }
        },
        {
            "mesh": 9,
            "name": "SM_tbbqejqr_VarD",
            "rotation": [
                0.7071068286895752,
                0,
                0,
                0.7071068286895752
            ],
            "scale": [
                0.009999999776482582,
                0.009999999776482582,
                0.009999999776482582
            ]
        },
        {
            "mesh": 10,
            "name": "SM_tbbqejqr_VarD_LOD1",
            "rotation": [
                0.7071068286895752,
                0,
                0,
                0.7071068286895752
            ],
            "scale": [
                0.009999999776482582,
                0.009999999776482582,
                0.009999999776482582
            ],
            "extras": {
                "lod": {
                    "index": 1,
                    "mesh": "SM_tbbqejqr_VarD"
                }
            }
        },
        {
            "mesh": 11,
            "name": "SM_tbbqejqr_VarD_LOD2",
            "rotation": [
                0.7071068286895752,
                0,
                0,
                0.7071068286895752
            ],
            "scale": [
                0.009999999776482582,
                0.009999999776482582,
                0.009999999776482582
            ],
            "extras": {
                "lod": {
                    "index": 2,
                    "mesh": "SM_tbbqejqr_VarD"
                }
            }
        },
        {
            "mesh": 12,
            "name": "SM_tbbqejqr_VarE",
            "rotation": [
                0.7071068286895752,
                0,
                0,
                0.7071068286895752
            ],
            "scale": [
                0.009999999776482582,
                0.009999999776482582,
                0.009999999776482582
            ]
        },
        {
            "mesh": 13,
            "name": "SM_tbbqejqr_VarE_LOD1",
            "rotation": [
                0.7071068286895752,
                0,
                0,
                0.7071068286895752
            ],
            "scale": [
                0.009999999776482582,
                0.009999999776482582,
                0.009999999776482582
            ],
            "extras": {
                "lod": {
                    "index": 1,
                    "mesh": "SM_tbbqejqr_VarE"
                }
            }
        },
        {
            "mesh": 14,
            "name": "SM_tbbqejqr_VarE_LOD2",
            "rotation": [
                0.7071068286895752,
                0,
                0,
                0.7071068286895752
            ],
            "scale": [
                0.009999999776482582,
                0.009999999776482582,
                0.009999999776482582
            ],
            "extras": {
                "lod": {
                    "index": 2,
                    "mesh": "SM_tbbqejqr_VarE"
                }
            }
        }
    ],
    "materials": [
        {
            "alphaMode": "MASK",
            "doubleSided": true,
            "name": "MI_tbbqejqr",
            "normalTexture": {
                "index": 0
            },
            "pbrMetallicRoughness": {
                "baseColorTexture": {
                    "index": 2
                },
                "metallicRoughnessTexture": {
                    "index": 1
                },
                "metallicFactor": 0
            },
            "extras": {
                "params": [
                    {
                        "Name": "use Growth Effect",
                        "Value": false
                    },
                    {
                        "Name": "Base Color Controls",
                        "Value": [
                            1,
                            0.800000011920929,
                            1,
                            0
                        ]
                    }
                ]
            }
        },
        {
            "alphaMode": "MASK",
            "doubleSided": true,
            "name": "MI_tbbqejqr_Billboard",
            "normalTexture": {
                "index": 3
            },
            "pbrMetallicRoughness": {
                "baseColorTexture": {
                    "index": 4
                },
                "metallicFactor": 0,
                "roughnessFactor": 0.8
            },
            "extras": {
                "billboardFacingCamera": true,
                "params": [
                    {
                        "Name": "is Camera Facing Billboard",
                        "Value": true
                    },
                    {
                        "Name": "is Billboard",
                        "Value": true
                    }
                ]
            }
        }
    ],
    "meshes": [
        {
            "name": "SM_tbbqejqr_VarA",
            "primitives": [
                {
                    "attributes": {
                        "POSITION": 1,
                        "TEXCOORD_0": 2,
                        "_wind": 0
                    },
                    "indices": 3,
                    "material": 0
                }
            ]
        },
        {
            "name": "SM_tbbqejqr_VarA_LOD1",
            "primitives": [
                {
                    "attributes": {
                        "POSITION": 5,
                        "TEXCOORD_0": 6,
                        "_wind": 4
                    },
                    "indices": 7,
                    "material": 0
                }
            ]
        },
        {
            "name": "SM_tbbqejqr_VarA_LOD2",
            "primitives": [
                {
                    "attributes": {
                        "POSITION": 9,
                        "TEXCOORD_0": 10,
                        "_wind": 8
                    },
                    "indices": 11,
                    "material": 1
                }
            ]
        },
        {
            "name": "SM_tbbqejqr_VarB",
            "primitives": [
                {
                    "attributes": {
                        "POSITION": 13,
                        "TEXCOORD_0": 14,
                        "_wind": 12
                    },
                    "indices": 15,
                    "material": 0
                }
            ]
        },
        {
            "name": "SM_tbbqejqr_VarB_LOD1",
            "primitives": [
                {
                    "attributes": {
                        "POSITION": 17,
                        "TEXCOORD_0": 18,
                        "_wind": 16
                    },
                    "indices": 19,
                    "material": 0
                }
            ]
        },
        {
            "name": "SM_tbbqejqr_VarB_LOD2",
            "primitives": [
                {
                    "attributes": {
                        "POSITION": 21,
                        "TEXCOORD_0": 22,
                        "_wind": 20
                    },
                    "indices": 23,
                    "material": 1
                }
            ]
        },
        {
            "name": "SM_tbbqejqr_VarC",
            "primitives": [
                {
                    "attributes": {
                        "POSITION": 25,
                        "TEXCOORD_0": 26,
                        "_wind": 24
                    },
                    "indices": 27,
                    "material": 0
                }
            ]
        },
        {
            "name": "SM_tbbqejqr_VarC_LOD1",
            "primitives": [
                {
                    "attributes": {
                        "POSITION": 29,
                        "TEXCOORD_0": 30,
                        "_wind": 28
                    },
                    "indices": 31,
                    "material": 0
                }
            ]
        },
        {
            "name": "SM_tbbqejqr_VarC_LOD2",
            "primitives": [
                {
                    "attributes": {
                        "POSITION": 33,
                        "TEXCOORD_0": 34,
                        "_wind": 32
                    },
                    "indices": 23,
                    "material": 1
                }
            ]
        },
        {
            "name": "SM_tbbqejqr_VarD",
            "primitives": [
                {
                    "attributes": {
                        "POSITION": 36,
                        "TEXCOORD_0": 37,
                        "_wind": 35
                    },
                    "indices": 38,
                    "material": 0
                }
            ]
        },
        {
            "name": "SM_tbbqejqr_VarD_LOD1",
            "primitives": [
                {
                    "attributes": {
                        "POSITION": 40,
                        "TEXCOORD_0": 41,
                        "_wind": 39
                    },
                    "indices": 42,
                    "material": 0
                }
            ]
        },
        {
            "name": "SM_tbbqejqr_VarD_LOD2",
            "primitives": [
                {
                    "attributes": {
                        "POSITION": 44,
                        "TEXCOORD_0": 45,
                        "_wind": 43
                    },
                    "indices": 46,
                    "material": 1
                }
            ]
        },
        {
            "name": "SM_tbbqejqr_VarE",
            "primitives": [
                {
                    "attributes": {
                        "POSITION": 48,
                        "TEXCOORD_0": 49,
                        "_wind": 47
                    },
                    "indices": 50,
                    "material": 0
                }
            ]
        },
        {
            "name": "SM_tbbqejqr_VarE_LOD1",
            "primitives": [
                {
                    "attributes": {
                        "POSITION": 52,
                        "TEXCOORD_0": 53,
                        "_wind": 51
                    },
                    "indices": 54,
                    "material": 0
                }
            ]
        },
        {
            "name": "SM_tbbqejqr_VarE_LOD2",
            "primitives": [
                {
                    "attributes": {
                        "POSITION": 56,
                        "TEXCOORD_0": 57,
                        "_wind": 55
                    },
                    "indices": 58,
                    "material": 1
                }
            ]
        }
    ],
    "textures": [
        {
            "sampler": 0,
            "source": 0
        },
        {
            "sampler": 0,
            "source": 1
        },
        {
            "sampler": 0,
            "source": 2
        },
        {
            "sampler": 0,
            "source": 3
        },
        {
            "sampler": 0,
            "source": 4
        }
    ],
    "images": [
        {
            "mimeType": "image/png",
            "name": "T_tbbqejqr_4K_N",
            "uri": "../Textures/T_tbbqejqr_4K_N.png",
            "extras": {
                "mipgen": "sharpen_4"
            }
        },
        {
            "mimeType": "image/png",
            "name": "T_tbbqejqr_4K_ORT",
            "uri": "../Textures/T_tbbqejqr_4K_ORT.png",
            "extras": {
                "compression": "mask",
                "textureSlot": "Mask",
                "materialIndex": 0,
                "mipgen": "sharpen_6",
                "alphaCoverage": [
                    0.333,
                    0,
                    0,
                    0
                ],
                "scaleMips": true
            }
        },
        {
            "mimeType": "image/png",
            "name": "T_tbbqejqr_4K_B-O",
            "uri": "../Textures/T_tbbqejqr_4K_B-O.png",
            "extras": {
                "mipgen": "sharpen_4"
            }
        },
        {
            "mimeType": "image/png",
            "name": "T_tbbqejqr_4K_Billboard_N-T",
            "uri": "../Textures/T_tbbqejqr_4K_Billboard_N-T.png",
            "extras": {
                "compression": "mask",
                "mipgen": "sharpen_4"
            }
        },
        {
            "mimeType": "image/png",
            "name": "T_tbbqejqr_4K_Billboard_B-O",
            "uri": "../Textures/T_tbbqejqr_4K_Billboard_B-O.png",
            "extras": {
                "mipgen": "sharpen_4",
                "alphaCoverage": [
                    0,
                    0,
                    0,
                    0.333
                ],
                "scaleMips": true
            }
        }
    ],
    "accessors": [
        {
            "bufferView": 0,
            "componentType": 5123,
            "count": 2379,
            "normalized": true,
            "type": "VEC4"
        },
        {
            "bufferView": 1,
            "componentType": 5126,
            "count": 2379,
            "max": [
                19.031282424926758,
                17.63669776916504,
                2.1867406368255615
            ],
            "min": [
                -15.048165321350098,
                -19.510860443115234,
                -66.59664154052734
            ],
            "type": "VEC3"
        },
        {
            "bufferView": 2,
            "componentType": 5126,
            "count": 2379,
            "type": "VEC2"
        },
        {
            "bufferView": 3,
            "componentType": 5123,
            "count": 6756,
            "type": "SCALAR"
        },
        {
            "bufferView": 4,
            "componentType": 5123,
            "count": 1257,
            "normalized": true,
            "type": "VEC4"
        },
        {
            "bufferView": 5,
            "componentType": 5126,
            "count": 1257,
            "max": [
                19.031282424926758,
                17.63669776916504,
                2.1867406368255615
            ],
            "min": [
                -15.048165321350098,
                -19.510860443115234,
                -66.59664154052734
            ],
            "type": "VEC3"
        },
        {
            "bufferView": 6,
            "componentType": 5126,
            "count": 1257,
            "type": "VEC2"
        },
        {
            "bufferView": 7,
            "componentType": 5123,
            "count": 3318,
            "type": "SCALAR"
        },
        {
            "bufferView": 8,
            "componentType": 5123,
            "count": 4,
            "normalized": true,
            "type": "VEC4"
        },
        {
            "bufferView": 9,
            "componentType": 5126,
            "count": 4,
            "max": [
                19.031282424926758,
                0,
                0.018910318613052368
            ],
            "min": [
                -15.048165321350098,
                0,
                -66.20584869384766
            ],
            "type": "VEC3"
        },
        {
            "bufferView": 10,
            "componentType": 5126,
            "count": 4,
            "type": "VEC2"
        },
        {
            "bufferView": 11,
            "componentType": 5123,
            "count": 6,
            "type": "SCALAR"
        },
        {
            "bufferView": 12,
            "componentType": 5123,
            "count": 1825,
            "normalized": true,
            "type": "VEC4"
        },
        {
            "bufferView": 13,
            "componentType": 5126,
            "count": 1825,
            "max": [
                14.395671844482422,
                9.869255065917969,
                1.917413592338562
            ],
            "min": [
                -16.319889068603516,
                -18.048686981201172,
                -57.89619064331055
            ],
            "type": "VEC3"
        },
        {
            "bufferView": 14,
            "componentType": 5126,
            "count": 1825,
            "type": "VEC2"
        },
        {
            "bufferView": 15,
            "componentType": 5123,
            "count": 5229,
            "type": "SCALAR"
        },
        {
            "bufferView": 16,
            "componentType": 5123,
            "count": 977,
            "normalized": true,
            "type": "VEC4"
        },
        {
            "bufferView": 17,
            "componentType": 5126,
            "count": 977,
            "max": [
                14.395671844482422,
                9.869255065917969,
                1.917413592338562
            ],
            "min": [
                -16.319889068603516,
                -18.048686981201172,
                -57.89619064331055
            ],
            "type": "VEC3"
        },
        {
            "bufferView": 18,
            "componentType": 5126,
            "count": 977,
            "type": "VEC2"
        },
        {
            "bufferView": 19,
            "componentType": 5123,
            "count": 2553,
            "type": "SCALAR"
        },
        {
            "bufferView": 20,
            "componentType": 5123,
            "count": 6,
            "normalized": true,
            "type": "VEC4"
        },
        {
            "bufferView": 21,
            "componentType": 5126,
            "count": 6,
            "max": [
                14.395671844482422,
                0,
                0.4544454514980316
            ],
            "min": [
                -16.319889068603516,
                0,
                -57.89619064331055
            ],
            "type": "VEC3"
        },
        {
            "bufferView": 22,
            "componentType": 5126,
            "count": 6,
            "type": "VEC2"
        },
        {
            "bufferView": 23,
            "componentType": 5123,
            "count": 12,
            "type": "SCALAR"
        },
        {
            "bufferView": 24,
            "componentType": 5123,
            "count": 883,
            "normalized": true,
            "type": "VEC4"
        },
        {
            "bufferView": 25,
            "componentType": 5126,
            "count": 883,
            "max": [
                7.840419769287109,
                7.8110785484313965,
                2.263690233230591
            ],
            "min": [
                -13.219411849975586,
                -8.191789627075195,
                -45.74256134033203
            ],
            "type": "VEC3"
        },
        {
            "bufferView": 26,
            "componentType": 5126,
            "count": 883,
            "type": "VEC2"
        },
        {
            "bufferView": 27,
            "componentType": 5123,
            "count": 2520,
            "type": "SCALAR"
        },
        {
            "bufferView": 28,
            "componentType": 5123,
            "count": 469,
            "normalized": true,
            "type": "VEC4"
        },
        {
            "bufferView": 29,
            "componentType": 5126,
            "count": 469,
            "max": [
                7.840419769287109,
                7.8110785484313965,
                2.263690233230591
            ],
            "min": [
                -13.219411849975586,
                -8.191778182983398,
                -45.74256134033203
            ],
            "type": "VEC3"
        },
        {
            "bufferView": 30,
            "componentType": 5126,
            "count": 469,
            "type": "VEC2"
        },
        {
            "bufferView": 31,
            "componentType": 5123,
            "count": 1236,
            "type": "SCALAR"
        },
        {
            "bufferView": 32,
            "componentType": 5123,
            "count": 6,
            "normalized": true,
            "type": "VEC4"
        },
        {
            "bufferView": 33,
            "componentType": 5126,
            "count": 6,
            "max": [
                7.840419769287109,
                0,
                2.092491626739502
            ],
            "min": [
                -13.219411849975586,
                0,
                -45.67466735839844
            ],
            "type": "VEC3"
        },
        {
            "bufferView": 34,
            "componentType": 5126,
            "count": 6,
            "type": "VEC2"
        },
        {
            "bufferView": 35,
            "componentType": 5123,
            "count": 1028,
            "normalized": true,
            "type": "VEC4"
        },
        {
            "bufferView": 36,
            "componentType": 5126,
            "count": 1028,
            "max": [
                10.11544418334961,
                7.539436340332031,
                0.6922883987426758
            ],
            "min": [
                -12.054137229919434,
                -7.779627323150635,
                -13.2299165725708
            ],
            "type": "VEC3"
        },
        {
            "bufferView": 37,
            "componentType": 5126,
            "count": 1028,
            "type": "VEC2"
        },
        {
            "bufferView": 38,
            "componentType": 5123,
            "count": 2964,
            "type": "SCALAR"
        },
        {
            "bufferView": 39,
            "componentType": 5123,
            "count": 560,
            "normalized": true,
            "type": "VEC4"
        },
        {
            "bufferView": 40,
            "componentType": 5126,
            "count": 560,
            "max": [
                10.115447998046875,
                7.539443492889404,
                0.692288875579834
            ],
            "min": [
                -12.054131507873535,
                -7.779617786407471,
                -13.2299165725708
            ],
            "type": "VEC3"
        },
        {
            "bufferView": 41,
            "componentType": 5126,
            "count": 560,
            "type": "VEC2"
        },
        {
            "bufferView": 42,
            "componentType": 5123,
            "count": 1464,
            "type": "SCALAR"
        },
        {
            "bufferView": 43,
            "componentType": 5123,
            "count": 5,
            "normalized": true,
            "type": "VEC4"
        },
        {
            "bufferView": 44,
            "componentType": 5126,
            "count": 5,
            "max": [
                8.731668472290039,
                0,
                0.6922883987426758
            ],
            "min": [
                -12.054137229919434,
                0,
                -13.216893196105957
            ],
            "type": "VEC3"
        },
        {
            "bufferView": 45,
            "componentType": 5126,
            "count": 5,
            "type": "VEC2"
        },
        {
            "bufferView": 46,
            "componentType": 5123,
            "count": 9,
            "type": "SCALAR"
        },
        {
            "bufferView": 47,
            "componentType": 5123,
            "count": 240,
            "normalized": true,
            "type": "VEC4"
        },
        {
            "bufferView": 48,
            "componentType": 5126,
            "count": 240,
            "max": [
                12.134702682495117,
                18.14528465270996,
                1.5739573240280151
            ],
            "min": [
                -15.133892059326172,
                -20.306474685668945,
                -2.284128189086914
            ],
            "type": "VEC3"
        },
        {
            "bufferView": 49,
            "componentType": 5126,
            "count": 240,
            "type": "VEC2"
        },
        {
            "bufferView": 50,
            "componentType": 5123,
            "count": 708,
            "type": "SCALAR"
        },
        {
            "bufferView": 51,
            "componentType": 5123,
            "count": 122,
            "normalized": true,
            "type": "VEC4"
        },
        {
            "bufferView": 52,
            "componentType": 5126,
            "count": 122,
            "max": [
                12.134693145751953,
                18.14529800415039,
                1.5739573240280151
            ],
            "min": [
                -15.099875450134277,
                -20.306474685668945,
                -2.284128189086914
            ],
            "type": "VEC3"
        },
        {
            "bufferView": 53,
            "componentType": 5126,
            "count": 122,
            "type": "VEC2"
        },
        {
            "bufferView": 54,
            "componentType": 5123,
            "count": 300,
            "type": "SCALAR"
        },
        {
            "bufferView": 55,
            "componentType": 5123,
            "count": 6,
            "normalized": true,
            "type": "VEC4"
        },
        {
            "bufferView": 56,
            "componentType": 5126,
            "count": 6,
            "max": [
                12.134702682495117,
                18.14528465270996,
                0
            ],
            "min": [
                -15.133892059326172,
                -20.306474685668945,
                0
            ],
            "type": "VEC3"
        },
        {
            "bufferView": 57,
            "componentType": 5126,
            "count": 6,
            "type": "VEC2"
        },
        {
            "bufferView": 58,
            "componentType": 5123,
            "count": 12,
            "type": "SCALAR"
        }
    ],
    "bufferViews": [
        {
            "buffer": 0,
            "byteLength": 19032,
            "byteOffset": 0,
            "target": 34962
        },
        {
            "buffer": 0,
            "byteLength": 28548,
            "byteOffset": 19032,
            "target": 34962
        },
        {
            "buffer": 0,
            "byteLength": 19032,
            "byteOffset": 47580,
            "target": 34962
        },
        {
            "buffer": 0,
            "byteLength": 13512,
            "byteOffset": 66612,
            "target": 34963
        },
        {
            "buffer": 0,
            "byteLength": 10056,
            "byteOffset": 80124,
            "target": 34962
        },
        {
            "buffer": 0,
            "byteLength": 15084,
            "byteOffset": 90180,
            "target": 34962
        },
        {
            "buffer": 0,
            "byteLength": 10056,
            "byteOffset": 105264,
            "target": 34962
        },
        {
            "buffer": 0,
            "byteLength": 6636,
            "byteOffset": 115320,
            "target": 34963
        },
        {
            "buffer": 0,
            "byteLength": 32,
            "byteOffset": 121956,
            "target": 34962
        },
        {
            "buffer": 0,
            "byteLength": 48,
            "byteOffset": 121988,
            "target": 34962
        },
        {
            "buffer": 0,
            "byteLength": 32,
            "byteOffset": 122036,
            "target": 34962
        },
        {
            "buffer": 0,
            "byteLength": 12,
            "byteOffset": 122068,
            "target": 34963
        },
        {
            "buffer": 0,
            "byteLength": 14600,
            "byteOffset": 122080,
            "target": 34962
        },
        {
            "buffer": 0,
            "byteLength": 21900,
            "byteOffset": 136680,
            "target": 34962
        },
        {
            "buffer": 0,
            "byteLength": 14600,
            "byteOffset": 158580,
            "target": 34962
        },
        {
            "buffer": 0,
            "byteLength": 10458,
            "byteOffset": 173180,
            "target": 34963
        },
        {
            "buffer": 0,
            "byteLength": 7816,
            "byteOffset": 183640,
            "target": 34962
        },
        {
            "buffer": 0,
            "byteLength": 11724,
            "byteOffset": 191456,
            "target": 34962
        },
        {
            "buffer": 0,
            "byteLength": 7816,
            "byteOffset": 203180,
            "target": 34962
        },
        {
            "buffer": 0,
            "byteLength": 5106,
            "byteOffset": 210996,
            "target": 34963
        },
        {
            "buffer": 0,
            "byteLength": 48,
            "byteOffset": 216104,
            "target": 34962
        },
        {
            "buffer": 0,
            "byteLength": 72,
            "byteOffset": 216152,
            "target": 34962
        },
        {
            "buffer": 0,
            "byteLength": 48,
            "byteOffset": 216224,
            "target": 34962
        },
        {
            "buffer": 0,
            "byteLength": 24,
            "byteOffset": 216272,
            "target": 34963
        },
        {
            "buffer": 0,
            "byteLength": 7064,
            "byteOffset": 216296,
            "target": 34962
        },
        {
            "buffer": 0,
            "byteLength": 10596,
            "byteOffset": 223360,
            "target": 34962
        },
        {
            "buffer": 0,
            "byteLength": 7064,
            "byteOffset": 233956,
            "target": 34962
        },
        {
            "buffer": 0,
            "byteLength": 5040,
            "byteOffset": 241020,
            "target": 34963
        },
        {
            "buffer": 0,
            "byteLength": 3752,
            "byteOffset": 246060,
            "target": 34962
        },
        {
            "buffer": 0,
            "byteLength": 5628,
            "byteOffset": 249812,
            "target": 34962
        },
        {
            "buffer": 0,
            "byteLength": 3752,
            "byteOffset": 255440,
            "target": 34962
        },
        {
            "buffer": 0,
            "byteLength": 2472,
            "byteOffset": 259192,
            "target": 34963
        },
        {
            "buffer": 0,
            "byteLength": 48,
            "byteOffset": 261664,
            "target": 34962
        },
        {
            "buffer": 0,
            "byteLength": 72,
            "byteOffset": 261712,
            "target": 34962
        },
        {
            "buffer": 0,
            "byteLength": 48,
            "byteOffset": 261784,
            "target": 34962
        },
        {
            "buffer": 0,
            "byteLength": 8224,
            "byteOffset": 261832,
            "target": 34962
        },
        {
            "buffer": 0,
            "byteLength": 12336,
            "byteOffset": 270056,
            "target": 34962
        },
        {
            "buffer": 0,
            "byteLength": 8224,
            "byteOffset": 282392,
            "target": 34962
        },
        {
            "buffer": 0,
            "byteLength": 5928,
            "byteOffset": 290616,
            "target": 34963
        },
        {
            "buffer": 0,
            "byteLength": 4480,
            "byteOffset": 296544,
            "target": 34962
        },
        {
            "buffer": 0,
            "byteLength": 6720,
            "byteOffset": 301024,
            "target": 34962
        },
        {
            "buffer": 0,
            "byteLength": 4480,
            "byteOffset": 307744,
            "target": 34962
        },
        {
            "buffer": 0,
            "byteLength": 2928,
            "byteOffset": 312224,
            "target": 34963
        },
        {
            "buffer": 0,
            "byteLength": 40,
            "byteOffset": 315152,
            "target": 34962
        },
        {
            "buffer": 0,
            "byteLength": 60,
            "byteOffset": 315192,
            "target": 34962
        },
        {
            "buffer": 0,
            "byteLength": 40,
            "byteOffset": 315252,
            "target": 34962
        },
        {
            "buffer": 0,
            "byteLength": 18,
            "byteOffset": 315292,
            "target": 34963
        },
        {
            "buffer": 0,
            "byteLength": 1920,
            "byteOffset": 315312,
            "target": 34962
        },
        {
            "buffer": 0,
            "byteLength": 2880,
            "byteOffset": 317232,
            "target": 34962
        },
        {
            "buffer": 0,
            "byteLength": 1920,
            "byteOffset": 320112,
            "target": 34962
        },
        {
            "buffer": 0,
            "byteLength": 1416,
            "byteOffset": 322032,
            "target": 34963
        },
        {
            "buffer": 0,
            "byteLength": 976,
            "byteOffset": 323448,
            "target": 34962
        },
        {
            "buffer": 0,
            "byteLength": 1464,
            "byteOffset": 324424,
            "target": 34962
        },
        {
            "buffer": 0,
            "byteLength": 976,
            "byteOffset": 325888,
            "target": 34962
        },
        {
            "buffer": 0,
            "byteLength": 600,
            "byteOffset": 326864,
            "target": 34963
        },
        {
            "buffer": 0,
            "byteLength": 48,
            "byteOffset": 327464,
            "target": 34962
        },
        {
            "buffer": 0,
            "byteLength": 72,
            "byteOffset": 327512,
            "target": 34962
        },
        {
            "buffer": 0,
            "byteLength": 48,
            "byteOffset": 327584,
            "target": 34962
        },
        {
            "buffer": 0,
            "byteLength": 24,
            "byteOffset": 327632,
            "target": 34963
        }
    ],
    "samplers": [
        {
            "magFilter": 9729,
            "minFilter": 9987
        }
    ],
    "buffers": [
        {
            "byteLength": 327656,
            "uri": "../tbbqejqr_tier_1.bin"
        }
    ],
    "extras": {
        "tier": 1
    }
}