{
    "asset": {
        "generator": "Khronos glTF Blender I/O v3.6.27",
        "version": "2.0"
    },
    "scene": 0,
    "scenes": [
        {
            "name": "Scene",
            "nodes": [
                0
            ]
        }
    ],
    "nodes": [
        {
            "mesh": 0,
            "name": "skxfS_LOD0_TIER1_000",
            "rotation": [
                0.7071068286895752,
                0,
                0,
                0.7071068286895752
            ],
            "scale": [
                0.009999999776482582,
                0.009999999776482582,
                0.009999999776482582
            ]
        }
    ],
    "materials": [
        {
            "doubleSided": true,
            "name": "MI_skxfS",
            "normalTexture": {
                "index": 0
            },
            "occlusionTexture": {
                "index": 1
            },
            "pbrMetallicRoughness": {
                "baseColorTexture": {
                    "index": 2
                },
                "metallicRoughnessTexture": {
                    "index": 1
                }
            }
        }
    ],
    "meshes": [
        {
            "name": "S_skxfS_tier_1",
            "primitives": [
                {
                    "attributes": {
                        "POSITION": 0,
                        "NORMAL": 1,
                        "TEXCOORD_0": 2,
                        "TANGENT": 3
                    },
                    "indices": 4,
                    "material": 0
                }
            ]
        }
    ],
    "textures": [
        {
            "sampler": 0,
            "source": 0
        },
        {
            "sampler": 0,
            "source": 1
        },
        {
            "sampler": 0,
            "source": 2
        },
        {
            "sampler": 0,
            "source": 3
        }
    ],
    "images": [
        {
            "mimeType": "image/png",
            "name": "T_skxfS_4K_N",
            "uri": "Textures/T_skxfS_4K_N.png"
        },
        {
            "mimeType": "image/png",
            "name": "T_skxfS_4K_ORM",
            "uri": "Textures/T_skxfS_4K_ORM.png",
            "extras": {
                "compression": "mask"
            }
        },
        {
            "mimeType": "image/png",
            "name": "T_skxfS_4K_B",
            "uri": "Textures/T_skxfS_4K_B.png"
        },
        {
            "mimeType": "image/png",
            "name": "T_skxfS_4K_H",
            "uri": "Textures/T_skxfS_4K_H.png",
            "extras": {
                "textureSlot": "HeightTexture",
                "compression": "displacement"
            }
        }
    ],
    "accessors": [
        {
            "bufferView": 0,
            "componentType": 5126,
            "count": 13745,
            "max": [
                295.8482666015625,
                324.51007080078125,
                2.5125112533569336
            ],
            "min": [
                -298.1517028808594,
                -323.868896484375,
                -101.8079605102539
            ],
            "type": "VEC3"
        },
        {
            "bufferView": 1,
            "componentType": 5126,
            "count": 13745,
            "type": "VEC3"
        },
        {
            "bufferView": 2,
            "componentType": 5126,
            "count": 13745,
            "type": "VEC2"
        },
        {
            "bufferView": 3,
            "componentType": 5126,
            "count": 13745,
            "type": "VEC4"
        },
        {
            "bufferView": 4,
            "componentType": 5123,
            "count": 76524,
            "type": "SCALAR"
        }
    ],
    "bufferViews": [
        {
            "buffer": 0,
            "byteLength": 164940,
            "byteOffset": 0,
            "target": 34962
        },
        {
            "buffer": 0,
            "byteLength": 164940,
            "byteOffset": 164940,
            "target": 34962
        },
        {
            "buffer": 0,
            "byteLength": 109960,
            "byteOffset": 329880,
            "target": 34962
        },
        {
            "buffer": 0,
            "byteLength": 219920,
            "byteOffset": 439840,
            "target": 34962
        },
        {
            "buffer": 0,
            "byteLength": 153048,
            "byteOffset": 659760,
            "target": 34963
        }
    ],
    "samplers": [
        {
            "magFilter": 9729,
            "minFilter": 9987
        }
    ],
    "buffers": [
        {
            "byteLength": 812808,
            "uri": "skxfS_tier_1.bin"
        }
    ]
}